<svg xmlns="http://www.w3.org/2000/svg" width="22" height="22" viewBox="0 0 22 22">
  <defs>
    <style>
      .cls-1 {
        fill: #fff;
      }
    </style>
  </defs>
  <path id="icon_cog" class="cls-1" d="M18.924,8.719a8.186,8.186,0,0,0-.707-1.713l1.367-2.875A11.109,11.109,0,0,0,17.87,2.416L14.994,3.783a8.229,8.229,0,0,0-1.713-.707L12.211.07a10.5,10.5,0,0,0-2.423,0L8.719,3.076a8.249,8.249,0,0,0-1.712.707L4.13,2.416A11.109,11.109,0,0,0,2.416,4.13L3.783,7.006a8.229,8.229,0,0,0-.707,1.713L.07,9.789a10.5,10.5,0,0,0,0,2.423l3.007,1.07a8.186,8.186,0,0,0,.707,1.713L2.417,17.87a11.049,11.049,0,0,0,1.715,1.715l2.875-1.367a8.229,8.229,0,0,0,1.713.707l1.07,3.007A11.306,11.306,0,0,0,11,22a11,11,0,0,0,1.211-.07l1.07-3.007a8.186,8.186,0,0,0,1.713-.707l2.875,1.367a11.049,11.049,0,0,0,1.715-1.715l-1.367-2.875a8.229,8.229,0,0,0,.707-1.713l3.007-1.07A11.306,11.306,0,0,0,22,11a11,11,0,0,0-.07-1.211ZM11,16.5A5.5,5.5,0,1,1,16.5,11,5.5,5.5,0,0,1,11,16.5ZM8.25,11A2.75,2.75,0,1,0,11,8.25,2.75,2.75,0,0,0,8.25,11Z" transform="translate(0 0)"/>
</svg>
