<svg xmlns="http://www.w3.org/2000/svg" width="26" height="26" viewBox="0 0 26 26">
  <defs>
    <style>
      .cls-1 {
        fill: #ffd600;
      }
    </style>
  </defs>
  <path id="icon_check" class="cls-1" d="M13.084,0a13,13,0,1,0,13,13,13,13,0,0,0-13-13ZM19.11,9.4l-6.23,9.518a0,0,0,0,0,0,0,1.185,1.185,0,0,1-.091.149,1.168,1.168,0,0,1-.195.141c-.016.011-.033.024-.05.036a1.056,1.056,0,0,1-.318.133c-.037.01-.072.019-.111.026a1.1,1.1,0,0,1-.273,0,1.076,1.076,0,0,1-.19-.029,1.15,1.15,0,0,1-.187-.075,1.3,1.3,0,0,1-.156-.062.718.718,0,0,1-.086-.086c-.013-.011-.029-.015-.042-.026L7.549,15.785a1.137,1.137,0,1,1,1.544-1.671l2.623,2.428L17.2,8.159A1.14,1.14,0,0,1,19.11,9.4Z" transform="translate(-0.084)"/>
</svg>
