<svg xmlns="http://www.w3.org/2000/svg" width="26" height="26" viewBox="0 0 26 26">
  <defs>
    <style>
      .cls-1 {
        fill: #fff;
      }
    </style>
  </defs>
  <path id="icon_sun" class="cls-1" d="M16.131,26,13.2,18.2a5.157,5.157,0,0,0,1.942-.455L16.133,26Zm-6.26,0h0l.994-8.251A5.155,5.155,0,0,0,12.8,18.2Zm11.805-2.933-6.166-5.5a5.2,5.2,0,0,0,1.525-1.275l4.643,6.778Zm-17.352,0,0,0,4.643-6.778a5.2,5.2,0,0,0,1.524,1.275Zm20.91-5.193-7.917-1.967a5.155,5.155,0,0,0,.77-1.815l7.148,3.78Zm-24.468,0v0l7.149-3.781a5.154,5.154,0,0,0,.77,1.815Zm7.063-4.323h0L0,11.606H7.991a5.211,5.211,0,0,0-.19,1.4,5.284,5.284,0,0,0,.028.544Zm10.344,0v0a5.288,5.288,0,0,0,.028-.544,5.213,5.213,0,0,0-.19-1.4H26L18.174,13.55Zm-.361-2.524v0a5.184,5.184,0,0,0-1.05-1.613L23.778,5.7l-5.966,5.325Zm-9.621,0h0L2.223,5.7,9.24,9.412a5.184,5.184,0,0,0-1.05,1.613ZM9.721,8.968v0L6.915,1.511,11.4,8.056a5.166,5.166,0,0,0-1.674.911Zm6.558,0h0A5.17,5.17,0,0,0,14.6,8.056l4.482-6.545L16.28,8.966ZM13.95,7.892h0A5.089,5.089,0,0,0,13,7.8a5.242,5.242,0,0,0-.948.086L13,0l.95,7.89Z"/>
</svg>
