<svg xmlns="http://www.w3.org/2000/svg" width="22" height="32" viewBox="0 0 22 32">
  <defs>
    <style>
      .cls-1 {
        fill: #ededed;
      }
    </style>
  </defs>
  <path id="icon_trash" class="cls-1" d="M26,2H22a2,2,0,0,0-2-2H14a2,2,0,0,0-2,2H8A2,2,0,0,0,6,4H28A2,2,0,0,0,26,2ZM6,30a2,2,0,0,0,2,2H26a2,2,0,0,0,2-2V6H6ZM8,8H26V30H8Zm3,2a1,1,0,0,0-1,1V27a1,1,0,0,0,2,0V11A1,1,0,0,0,11,10Zm6,0a1,1,0,0,0-1,1V27a1,1,0,0,0,2,0V11A1,1,0,0,0,17,10Zm6,0a1,1,0,0,0-1,1V27a1,1,0,0,0,2,0V11A1,1,0,0,0,23,10Z" transform="translate(-6)"/>
</svg>
